<?xml version="1.0" encoding="UTF-8"?>
<svg width="1296px" height="347px" viewBox="0 0 1296 347" version="1.1" xmlns="http://www.w3.org/2000/svg" xmlns:xlink="http://www.w3.org/1999/xlink">
    <!-- Generator: Sketch 52.6 (67491) - http://www.bohemiancoding.com/sketch -->
    <title>théâtre cours bleu</title>
    <desc>Created with Sketch.</desc>
    <g id="théâtre-cours-bleu" stroke="none" stroke-width="1" fill="none" fill-rule="evenodd">
        <g id="Group" transform="translate(29.000000, 47.000000)">
            <path d="M200.398257,160.039794 C198.328745,162.108938 197.372247,165.082245 197.859192,168.003388 L209.406723,236.458998 C210.658865,243.796633 203.093841,249.412879 196.62444,245.952715 L136.104243,213.594094 C134.81732,212.915972 133.40866,212.568216 132,212.568216 C130.59134,212.568216 129.18268,212.915972 127.895757,213.594094 L67.3755596,245.952715 C60.9061593,249.412879 53.3411346,243.796633 54.5932766,236.458998 L66.1408085,168.003388 C66.6277526,165.082245 65.6712552,162.108938 63.6017428,160.039794 L14.6812501,111.56272 C9.42921,106.36378 12.3334838,97.304757 19.5680821,96.2267159 L87.2011415,86.2461418 C90.0706336,85.8114478 92.5575267,83.985733 93.8270596,81.3254058 L124.087158,19.0076748 C125.704508,15.6692249 128.852254,14 132,14 C135.147746,14 138.295492,15.6692249 139.912842,19.0076748 L170.17294,81.3254058 C171.442473,83.985733 173.929366,85.8114478 176.798859,86.2461418 L244.431918,96.2267159 C251.666516,97.304757 254.57079,106.36378 249.31875,111.56272 L200.398257,160.039794 Z" id="Path" fill="#FBD560"></path>
            <path d="M53.9677433,166.831501 L42.7598795,233.265825 C41.34651,241.654419 44.7382492,249.93872 51.6138659,254.883923 C55.4141436,257.614648 59.8385291,259 64.2942069,259 C67.7954691,259 71.314116,258.143063 74.5563474,256.41007 L133.001698,225.167512 L191.447048,256.408331 C198.811172,260.347111 207.602574,259.759597 214.389529,254.882184 C221.265146,249.936982 224.656885,241.654419 223.243515,233.264087 L212.035652,166.829763 L259.457415,119.833823 C265.434247,113.908271 267.511709,105.239826 264.876201,97.2145177 C262.263292,89.258738 255.526753,83.5626292 247.296874,82.3441451 L181.92723,72.6883976 L152.635886,12.3482323 C148.939916,4.73140318 141.415853,0 132.999959,0 C124.584065,0 117.060002,4.73140318 113.364032,12.3482323 L84.0726878,72.6883976 L18.7047824,82.3441451 C10.4731654,83.560891 3.73662562,89.258738 1.1237174,97.2145177 C-1.51179081,105.239826 0.565671139,113.908271 6.54598002,119.8373 L53.9677433,166.831501 Z M90.1173197,98.1531503 C97.2589212,97.099796 103.413076,92.5682868 106.580554,86.0395761 L133.001698,31.6127956 L159.421103,86.0378379 C162.58858,92.570025 168.742735,97.099796 175.886075,98.1566267 L235.417964,106.950223 L192.210232,149.772724 C187.114801,154.817005 184.787,162.067072 185.9848,169.165915 L196.139156,229.353118 L143.246453,201.081159 C140.038991,199.367285 136.522083,198.510349 133.001698,198.510349 C129.484789,198.510349 125.964404,199.367285 122.755203,201.081159 L69.8642388,229.353118 L80.0185946,169.165915 C81.2146564,162.067072 78.8885944,154.817005 73.7966396,149.776201 L30.585431,106.950223 L90.1173197,98.1531503 Z" id="Shape" stroke="#FFFFFF" opacity="0.967145647" fill-rule="nonzero"></path>
            <path d="M191.568533,156.222145 C189.826694,157.953832 189.021642,160.442222 189.431486,162.886956 L199.150659,220.178132 C200.204545,226.31907 193.837316,231.019363 188.392237,228.123517 L137.454405,201.042268 C136.371244,200.47474 135.185622,200.1837 134,200.1837 L134,34 C136.649353,34 139.298706,35.3969908 140.659975,38.1909725 L166.128892,90.3452967 C167.197415,92.5717508 169.29055,94.0997095 171.705706,94.4635092 L228.630198,102.81635 C234.719318,103.718573 237.163748,111.300159 232.743281,115.651203 L191.568533,156.222145 Z" id="Path" fill="#FFB729"></path>
        </g>
        <rect id="Rectangle" fill="#6C63D5" x="308" y="103" width="941" height="53"></rect>
        <text id="Théâtre-Cours" stroke="#4A4A4A" font-family="SourceSansPro-BoldItalic, Source Sans Pro" font-size="170" font-style="italic" font-weight="bold" line-spacing="53" letter-spacing="-8.22433376" fill="#FFFFFF">
            <tspan x="308" y="270">Théâtre Cours</tspan>
        </text>
        <text id="Les-meilleurs-atelie" font-family="SourceSansPro-Bold, Source Sans Pro" font-size="69" font-weight="bold" line-spacing="78" letter-spacing="15.1800003" fill="#FFFFFF">
            <tspan x="327" y="236">Les meilleurs </tspan>
            <tspan x="327" y="314">ateliers de théâtr</tspan>
            <tspan x="1120.29301" y="314" letter-spacing="14.9631433">e</tspan>
        </text>
    </g>
</svg>